#!OML:ASF E:\Steps\Project 1\Capture day 1\Session 2\Subject.ASF
:FULLY-SPECIFIED
:DEGREES
250
root 10.4031 17.5712 18.6108 -145.893 8.73801 173.042
lowerback -3.92321 -2.46333 -3.14963
upperback 4.88345 -2.90522 -0.0374212
thorax 7.47395 -1.53342 1.42774
lowerneck -0.556013 -3.14359 -1.62081
upperneck 11.1241 -3.87546 1.12788
head 3.76526 -1.78765 0.529062
rclavicle -1.82882e-014 3.18055e-014
rhumerus -16.4927 15.9997 -65.7782
rradius 47.3029
rwrist -9.4936
rhand -9.89393 -45.8547
rfingers 7.12502
rthumb 16.0858 -75.207
lclavicle -1.82882e-014 3.18055e-014
lhumerus -27.4228 -12.6601 76.7146
lradius 55.0122
lwrist 9.85281
lhand -24.8961 -14.0439
lfingers 7.12502
lthumb 1.61191 15.9298
rfemur -66.5915 -4.86784 11.7755
rtibia 53.1429
rfoot -28.5685 -5.69996
rtoes -17.2705
lfemur -46.5037 -0.535294 -8.42694
ltibia 63.287
lfoot 6.36629 23.2296
ltoes -27.9832
251
root 10.4515 17.641 18.5911 -145.89 8.71239 173.191
lowerback -3.99128 -1.69659 -2.55182
upperback 5.11646 -1.84375 -0.735979
thorax 7.65772 -0.949004 0.471643
lowerneck -1.67244 -3.81587 0.528475
upperneck 11.469 -4.89835 1.04368
head 4.05196 -2.20753 0.0671354
rclavicle 2.22639e-014 1.49089e-014
rhumerus -17.5172 12.8837 -66.9467
rradius 46.7165
rwrist -8.66089
rhand -10.5933 -44.8379
rfingers 7.12502
rthumb 15.4122 -74.2433
lclavicle 2.22639e-014 1.49089e-014
lhumerus -26.054 -15.3463 76.192
lradius 53.9827
lwrist 10.228
lhand -25.1831 -14.945
lfingers 7.12502
lthumb 1.33469 15.0306
rfemur -65.8572 -4.54606 12.0752
rtibia 52.0687
rfoot -28.1752 -5.92256
rtoes -18.0182
lfemur -47.2139 -0.609708 -9.39409
ltibia 64.5429
lfoot 5.20024 22.107
ltoes -30.8584
252
root 10.4976 17.7049 18.5633 -145.929 8.8994 173.38
lowerback -4.46613 -2.00581 -2.90324
upperback 4.93606 -2.26872 -0.376437
thorax 7.7857 -1.199 0.984872
lowerneck -1.01223 -3.46454 -0.563707
upperneck 11.5951 -4.33791 1.1016
head 3.99753 -1.96346 0.309858
rclavicle 3.57812e-015 -2.48481e-014
rhumerus -17.4787 14.0906 -67.2072
rradius 46.3861
rwrist -9.01461
rhand -10.261 -45.2171
rfingers 7.12502
rthumb 15.7323 -74.5976
lclavicle 3.57812e-015 -2.48481e-014
lhumerus -27.0408 -13.749 76.7558
lradius 53.2953
lwrist 9.37668
lhand -25.7887 -15.6056
lfingers 7.12502
lthumb 0.749838 14.3729
rfemur -65.0938 -4.03935 12.2851
rtibia 51.0034
rfoot -27.8793 -5.89698
rtoes -17.449
lfemur -47.7042 -0.621531 -10.4164
ltibia 65.5642
lfoot 3.81326 21.0707
ltoes -32.5573
253
root 10.5432 17.7682 18.5361 -145.97 9.06708 173.489
lowerback -4.78105 -1.13754 -2.4612
upperback 5.45093 -1.01076 -1.19483
thorax 8.44659 -0.516798 0.0104327
lowerneck -3.01087 -4.16248 1.90143
upperneck 12.0733 -5.49858 1.03098
head 4.49384 -2.43091 -0.239677
rclavicle 5.96354e-015 1.05356e-014
rhumerus -18.0109 10.2327 -68.3405
rradius 46.0899
rwrist -8.52844
rhand -9.93028 -45.469
rfingers 7.12502
rthumb 16.0508 -74.8241
lclavicle 5.96354e-015 1.05356e-014
lhumerus -24.9968 -16.6277 75.888
lradius 52.3014
lwrist 9.29639
lhand -25.353 -14.9518
lfingers 7.12502
lthumb 1.17061 15.0247
rfemur -64.3189 -3.44318 12.2597
rtibia 49.9122
rfoot -27.5983 -5.88562
rtoes -16.0914
lfemur -48.1997 -0.753878 -11.489
ltibia 66.4563
lfoot 2.48911 20.0136
ltoes -32.7838
254
root 10.5857 17.8308 18.5088 -145.945 9.1182 173.654
lowerback -5.38899 -1.45311 -2.58941
upperback 5.28515 -1.45321 -0.93273
thorax 8.64437 -0.761525 0.291181
lowerneck -2.33059 -3.75905 0.826164
upperneck 12.032 -4.86476 1.22668
head 4.38224 -2.15364 0.0582879
rclavicle -1.31198e-014 -2.98177e-015
rhumerus -18.3579 11.3001 -68.7668
rradius 46.029
rwrist -8.43449
rhand -9.95457 -45.5206
rfingers 7.12502
rthumb 16.0274 -74.8777
lclavicle -1.31198e-014 -2.98177e-015
lhumerus -25.7594 -15.2775 76.293
lradius 51.5775
lwrist 8.90903
lhand -24.9661 -14.793
lfingers 7.12502
lthumb 1.54434 15.1811
rfemur -63.5955 -2.8737 12.2889
rtibia 48.8151
rfoot -27.2908 -5.85498
rtoes -14.7757
lfemur -48.7255 -0.992402 -12.4079
ltibia 67.1031
lfoot 1.35045 18.925
ltoes -32.9464
255
root 10.6273 17.892 18.4828 -145.963 9.12665 173.783
lowerback -5.65055 -1.44184 -2.68042
upperback 5.10323 -1.44371 -0.902383
thorax 8.60368 -0.768858 0.371473
lowerneck -2.15414 -3.68128 0.976998
upperneck 12.3841 -4.71287 1.00277
head 4.46366 -2.06562 -0.0348004
rclavicle 4.96962e-015 -2.44505e-014
rhumerus -19.0771 11.0962 -69.3525
rradius 45.8862
rwrist -8.06206
rhand -10.1478 -45.5463
rfingers 7.12502
rthumb 15.8413 -74.9182
lclavicle 4.96962e-015 -2.44505e-014
lhumerus -26.0774 -14.939 76.5078
lradius 50.7915
lwrist 8.25355
lhand -25.3278 -15.7254
lfingers 7.12502
lthumb 1.19502 14.251
rfemur -62.8435 -2.50439 12.4098
rtibia 47.7524
rfoot -27.0391 -5.77854
rtoes -13.9145
lfemur -49.1292 -1.36726 -13.2922
ltibia 67.4005
lfoot 0.586401 17.6489
ltoes -34.6068
